<svg width="67" height="67" viewBox="0 0 67 67" fill="none" xmlns="http://www.w3.org/2000/svg">
<g clip-path="url(#clip0)">
<path d="M1.52273 3.04546C2.36371 3.04546 3.04546 2.36371 3.04546 1.52273C3.04546 0.681749 2.36371 0 1.52273 0C0.681749 0 0 0.681749 0 1.52273C0 2.36371 0.681749 3.04546 1.52273 3.04546Z" fill="#0CABE5"/>
<path d="M1.52273 28.6272C2.36371 28.6272 3.04546 27.9455 3.04546 27.1045C3.04546 26.2635 2.36371 25.5818 1.52273 25.5818C0.681749 25.5818 0 26.2635 0 27.1045C0 27.9455 0.681749 28.6272 1.52273 28.6272Z" fill="#0CABE5"/>
<path d="M1.52273 54.2092C2.36371 54.2092 3.04546 53.5274 3.04546 52.6864C3.04546 51.8454 2.36371 51.1637 1.52273 51.1637C0.681749 51.1637 0 51.8454 0 52.6864C0 53.5274 0.681749 54.2092 1.52273 54.2092Z" fill="#0CABE5"/>
<path d="M1.52273 15.8364C2.36371 15.8364 3.04546 15.1546 3.04546 14.3136C3.04546 13.4726 2.36371 12.7909 1.52273 12.7909C0.681749 12.7909 0 13.4726 0 14.3136C0 15.1546 0.681749 15.8364 1.52273 15.8364Z" fill="#0CABE5"/>
<path d="M1.52273 41.4182C2.36371 41.4182 3.04546 40.7365 3.04546 39.8955C3.04546 39.0545 2.36371 38.3727 1.52273 38.3727C0.681749 38.3727 0 39.0545 0 39.8955C0 40.7365 0.681749 41.4182 1.52273 41.4182Z" fill="#0CABE5"/>
<path d="M1.52273 67C2.36371 67 3.04546 66.3183 3.04546 65.4773C3.04546 64.6363 2.36371 63.9546 1.52273 63.9546C0.681749 63.9546 0 64.6363 0 65.4773C0 66.3183 0.681749 67 1.52273 67Z" fill="#0CABE5"/>
<path d="M52.6864 3.04546C53.5274 3.04546 54.2091 2.36371 54.2091 1.52273C54.2091 0.681749 53.5274 0 52.6864 0C51.8454 0 51.1637 0.681749 51.1637 1.52273C51.1637 2.36371 51.8454 3.04546 52.6864 3.04546Z" fill="#0CABE5"/>
<path d="M52.6864 28.6272C53.5274 28.6272 54.2091 27.9455 54.2091 27.1045C54.2091 26.2635 53.5274 25.5818 52.6864 25.5818C51.8454 25.5818 51.1637 26.2635 51.1637 27.1045C51.1637 27.9455 51.8454 28.6272 52.6864 28.6272Z" fill="#0CABE5"/>
<path d="M52.6864 54.2092C53.5274 54.2092 54.2091 53.5274 54.2091 52.6864C54.2091 51.8454 53.5274 51.1637 52.6864 51.1637C51.8454 51.1637 51.1637 51.8454 51.1637 52.6864C51.1637 53.5274 51.8454 54.2092 52.6864 54.2092Z" fill="#0CABE5"/>
<path d="M52.6864 15.8364C53.5274 15.8364 54.2091 15.1546 54.2091 14.3136C54.2091 13.4726 53.5274 12.7909 52.6864 12.7909C51.8454 12.7909 51.1637 13.4726 51.1637 14.3136C51.1637 15.1546 51.8454 15.8364 52.6864 15.8364Z" fill="#0CABE5"/>
<path d="M52.6864 41.4182C53.5274 41.4182 54.2091 40.7365 54.2091 39.8955C54.2091 39.0545 53.5274 38.3727 52.6864 38.3727C51.8454 38.3727 51.1637 39.0545 51.1637 39.8955C51.1637 40.7365 51.8454 41.4182 52.6864 41.4182Z" fill="#0CABE5"/>
<path d="M52.6864 67C53.5274 67 54.2091 66.3183 54.2091 65.4773C54.2091 64.6363 53.5274 63.9546 52.6864 63.9546C51.8454 63.9546 51.1637 64.6363 51.1637 65.4773C51.1637 66.3183 51.8454 67 52.6864 67Z" fill="#0CABE5"/>
<path d="M27.1045 3.04546C27.9455 3.04546 28.6272 2.36371 28.6272 1.52273C28.6272 0.681749 27.9455 0 27.1045 0C26.2635 0 25.5818 0.681749 25.5818 1.52273C25.5818 2.36371 26.2635 3.04546 27.1045 3.04546Z" fill="#0CABE5"/>
<path d="M27.1045 28.6272C27.9455 28.6272 28.6272 27.9455 28.6272 27.1045C28.6272 26.2635 27.9455 25.5818 27.1045 25.5818C26.2635 25.5818 25.5818 26.2635 25.5818 27.1045C25.5818 27.9455 26.2635 28.6272 27.1045 28.6272Z" fill="#0CABE5"/>
<path d="M27.1045 54.2092C27.9455 54.2092 28.6272 53.5274 28.6272 52.6864C28.6272 51.8454 27.9455 51.1637 27.1045 51.1637C26.2635 51.1637 25.5818 51.8454 25.5818 52.6864C25.5818 53.5274 26.2635 54.2092 27.1045 54.2092Z" fill="#0CABE5"/>
<path d="M27.1045 15.8364C27.9455 15.8364 28.6272 15.1546 28.6272 14.3136C28.6272 13.4726 27.9455 12.7909 27.1045 12.7909C26.2635 12.7909 25.5818 13.4726 25.5818 14.3136C25.5818 15.1546 26.2635 15.8364 27.1045 15.8364Z" fill="#0CABE5"/>
<path d="M27.1045 41.4182C27.9455 41.4182 28.6272 40.7365 28.6272 39.8955C28.6272 39.0545 27.9455 38.3727 27.1045 38.3727C26.2635 38.3727 25.5818 39.0545 25.5818 39.8955C25.5818 40.7365 26.2635 41.4182 27.1045 41.4182Z" fill="#0CABE5"/>
<path d="M27.1045 67C27.9455 67 28.6272 66.3183 28.6272 65.4773C28.6272 64.6363 27.9455 63.9546 27.1045 63.9546C26.2635 63.9546 25.5818 64.6363 25.5818 65.4773C25.5818 66.3183 26.2635 67 27.1045 67Z" fill="#0CABE5"/>
<path d="M14.3136 3.04546C15.1546 3.04546 15.8363 2.36371 15.8363 1.52273C15.8363 0.681749 15.1546 0 14.3136 0C13.4726 0 12.7909 0.681749 12.7909 1.52273C12.7909 2.36371 13.4726 3.04546 14.3136 3.04546Z" fill="#0CABE5"/>
<path d="M14.3136 28.6272C15.1546 28.6272 15.8363 27.9455 15.8363 27.1045C15.8363 26.2635 15.1546 25.5818 14.3136 25.5818C13.4726 25.5818 12.7909 26.2635 12.7909 27.1045C12.7909 27.9455 13.4726 28.6272 14.3136 28.6272Z" fill="#0CABE5"/>
<path d="M14.3136 54.2092C15.1546 54.2092 15.8363 53.5274 15.8363 52.6864C15.8363 51.8454 15.1546 51.1637 14.3136 51.1637C13.4726 51.1637 12.7909 51.8454 12.7909 52.6864C12.7909 53.5274 13.4726 54.2092 14.3136 54.2092Z" fill="#0CABE5"/>
<path d="M14.3136 15.8364C15.1546 15.8364 15.8363 15.1546 15.8363 14.3136C15.8363 13.4726 15.1546 12.7909 14.3136 12.7909C13.4726 12.7909 12.7909 13.4726 12.7909 14.3136C12.7909 15.1546 13.4726 15.8364 14.3136 15.8364Z" fill="#0CABE5"/>
<path d="M14.3136 41.4182C15.1546 41.4182 15.8363 40.7365 15.8363 39.8955C15.8363 39.0545 15.1546 38.3727 14.3136 38.3727C13.4726 38.3727 12.7909 39.0545 12.7909 39.8955C12.7909 40.7365 13.4726 41.4182 14.3136 41.4182Z" fill="#0CABE5"/>
<path d="M14.3136 67C15.1546 67 15.8363 66.3183 15.8363 65.4773C15.8363 64.6363 15.1546 63.9546 14.3136 63.9546C13.4726 63.9546 12.7909 64.6363 12.7909 65.4773C12.7909 66.3183 13.4726 67 14.3136 67Z" fill="#0CABE5"/>
<path d="M65.4773 3.04546C66.3183 3.04546 67 2.36371 67 1.52273C67 0.681749 66.3183 0 65.4773 0C64.6363 0 63.9546 0.681749 63.9546 1.52273C63.9546 2.36371 64.6363 3.04546 65.4773 3.04546Z" fill="#0CABE5"/>
<path d="M65.4773 28.6272C66.3183 28.6272 67 27.9455 67 27.1045C67 26.2635 66.3183 25.5818 65.4773 25.5818C64.6363 25.5818 63.9546 26.2635 63.9546 27.1045C63.9546 27.9455 64.6363 28.6272 65.4773 28.6272Z" fill="#0CABE5"/>
<path d="M65.4773 54.2092C66.3183 54.2092 67 53.5274 67 52.6864C67 51.8454 66.3183 51.1637 65.4773 51.1637C64.6363 51.1637 63.9546 51.8454 63.9546 52.6864C63.9546 53.5274 64.6363 54.2092 65.4773 54.2092Z" fill="#0CABE5"/>
<path d="M65.4773 15.8364C66.3183 15.8364 67 15.1546 67 14.3136C67 13.4726 66.3183 12.7909 65.4773 12.7909C64.6363 12.7909 63.9546 13.4726 63.9546 14.3136C63.9546 15.1546 64.6363 15.8364 65.4773 15.8364Z" fill="#0CABE5"/>
<path d="M65.4773 41.4182C66.3183 41.4182 67 40.7365 67 39.8955C67 39.0545 66.3183 38.3727 65.4773 38.3727C64.6363 38.3727 63.9546 39.0545 63.9546 39.8955C63.9546 40.7365 64.6363 41.4182 65.4773 41.4182Z" fill="#0CABE5"/>
<path d="M65.4773 67C66.3183 67 67 66.3183 67 65.4773C67 64.6363 66.3183 63.9546 65.4773 63.9546C64.6363 63.9546 63.9546 64.6363 63.9546 65.4773C63.9546 66.3183 64.6363 67 65.4773 67Z" fill="#0CABE5"/>
<path d="M39.8955 3.04546C40.7365 3.04546 41.4182 2.36371 41.4182 1.52273C41.4182 0.681749 40.7365 0 39.8955 0C39.0545 0 38.3728 0.681749 38.3728 1.52273C38.3728 2.36371 39.0545 3.04546 39.8955 3.04546Z" fill="#0CABE5"/>
<path d="M39.8955 28.6272C40.7365 28.6272 41.4182 27.9455 41.4182 27.1045C41.4182 26.2635 40.7365 25.5818 39.8955 25.5818C39.0545 25.5818 38.3728 26.2635 38.3728 27.1045C38.3728 27.9455 39.0545 28.6272 39.8955 28.6272Z" fill="#0CABE5"/>
<path d="M39.8955 54.2092C40.7365 54.2092 41.4182 53.5274 41.4182 52.6864C41.4182 51.8454 40.7365 51.1637 39.8955 51.1637C39.0545 51.1637 38.3728 51.8454 38.3728 52.6864C38.3728 53.5274 39.0545 54.2092 39.8955 54.2092Z" fill="#0CABE5"/>
<path d="M39.8955 15.8364C40.7365 15.8364 41.4182 15.1546 41.4182 14.3136C41.4182 13.4726 40.7365 12.7909 39.8955 12.7909C39.0545 12.7909 38.3728 13.4726 38.3728 14.3136C38.3728 15.1546 39.0545 15.8364 39.8955 15.8364Z" fill="#0CABE5"/>
<path d="M39.8955 41.4182C40.7365 41.4182 41.4182 40.7365 41.4182 39.8955C41.4182 39.0545 40.7365 38.3727 39.8955 38.3727C39.0545 38.3727 38.3728 39.0545 38.3728 39.8955C38.3728 40.7365 39.0545 41.4182 39.8955 41.4182Z" fill="#0CABE5"/>
<path d="M39.8955 67C40.7365 67 41.4182 66.3183 41.4182 65.4773C41.4182 64.6363 40.7365 63.9546 39.8955 63.9546C39.0545 63.9546 38.3728 64.6363 38.3728 65.4773C38.3728 66.3183 39.0545 67 39.8955 67Z" fill="#0CABE5"/>
</g>
<defs>
<clipPath id="clip0">
<rect width="67" height="67" fill="white"/>
</clipPath>
</defs>
</svg>
