<svg width="67" height="67" viewBox="0 0 67 67" fill="none" xmlns="http://www.w3.org/2000/svg">
<circle cx="1.52273" cy="1.52273" r="1.52273" fill="#F5F5F5"/>
<circle cx="1.52273" cy="27.1045" r="1.52273" fill="#F7F7F7" fill-opacity="0.5"/>
<circle cx="1.52273" cy="52.6864" r="1.52273" fill="#F7F7F7" fill-opacity="0.5"/>
<circle cx="1.52273" cy="14.3136" r="1.52273" fill="#F5F5F5"/>
<circle cx="1.52273" cy="39.8955" r="1.52273" fill="#F7F7F7" fill-opacity="0.5"/>
<circle cx="1.52273" cy="65.4773" r="1.52273" fill="#F5F5F5"/>
<circle cx="52.6864" cy="1.52273" r="1.52273" fill="#F5F5F5"/>
<circle cx="52.6864" cy="27.1045" r="1.52273" fill="#F5F5F5"/>
<circle cx="52.6864" cy="52.6864" r="1.52273" fill="#F5F5F5"/>
<circle cx="52.6864" cy="14.3136" r="1.52273" fill="#F5F5F5"/>
<circle cx="52.6864" cy="39.8955" r="1.52273" fill="#F5F5F5"/>
<circle cx="52.6864" cy="65.4773" r="1.52273" fill="#F5F5F5"/>
<circle cx="27.1045" cy="1.52273" r="1.52273" fill="#F5F5F5"/>
<circle cx="27.1045" cy="27.1045" r="1.52273" fill="#F5F5F5"/>
<circle cx="27.1045" cy="52.6864" r="1.52273" fill="#F7F7F7" fill-opacity="0.5"/>
<circle cx="27.1045" cy="14.3136" r="1.52273" fill="#F5F5F5"/>
<circle cx="27.1045" cy="39.8955" r="1.52273" fill="#F5F5F5"/>
<circle cx="27.1045" cy="65.4773" r="1.52273" fill="#F7F7F7" fill-opacity="0.5"/>
<circle cx="14.3136" cy="1.52273" r="1.52273" fill="#F5F5F5"/>
<circle cx="14.3136" cy="27.1045" r="1.52273" fill="#F5F5F5"/>
<circle cx="14.3136" cy="52.6864" r="1.52273" fill="#F7F7F7" fill-opacity="0.5"/>
<circle cx="14.3136" cy="14.3136" r="1.52273" fill="#F5F5F5"/>
<circle cx="14.3136" cy="39.8955" r="1.52273" fill="#F7F7F7" fill-opacity="0.5"/>
<circle cx="14.3136" cy="65.4773" r="1.52273" fill="#F7F7F7" fill-opacity="0.5"/>
<circle cx="65.4773" cy="1.52273" r="1.52273" fill="#F5F5F5"/>
<circle cx="65.4773" cy="27.1045" r="1.52273" fill="#F5F5F5"/>
<circle cx="65.4773" cy="52.6864" r="1.52273" fill="#F5F5F5"/>
<circle cx="65.4773" cy="14.3136" r="1.52273" fill="#F5F5F5"/>
<circle cx="65.4773" cy="39.8955" r="1.52273" fill="#F5F5F5"/>
<circle cx="65.4773" cy="65.4773" r="1.52273" fill="#F5F5F5"/>
<circle cx="39.8955" cy="1.52273" r="1.52273" fill="#F5F5F5"/>
<circle cx="39.8955" cy="27.1045" r="1.52273" fill="#F5F5F5"/>
<circle cx="39.8955" cy="52.6864" r="1.52273" fill="#F5F5F5"/>
<circle cx="39.8955" cy="14.3136" r="1.52273" fill="#F5F5F5"/>
<circle cx="39.8955" cy="39.8955" r="1.52273" fill="#F5F5F5"/>
<circle cx="39.8955" cy="65.4773" r="1.52273" fill="#F7F7F7" fill-opacity="0.5"/>
</svg>
