<svg width="24" height="24" viewBox="0 0 24 24" fill="none" xmlns="http://www.w3.org/2000/svg">
<path d="M9.17 14.54H13.62C13.9 14.54 14.12 14.76 14.12 15.04C14.12 15.32 13.9 15.54 13.62 15.54H7.96C7.68 15.54 7.46 15.32 7.46 15.04V9.38C7.46 9.1 7.68 8.88 7.96 8.88C8.24 8.88 8.46 9.1 8.46 9.38V13.83L14.68 7.61C14.88 7.41 15.19 7.41 15.39 7.61C15.59 7.81 15.59 8.12 15.39 8.32L9.17 14.54ZM4.78 4.78C8.49 1.07 14.51 1.07 18.22 4.78C21.93 8.49 21.93 14.51 18.22 18.22C14.51 21.93 8.49 21.93 4.78 18.22C1.07 14.51 1.07 8.49 4.78 4.78ZM5.49 5.49C2.17 8.81 2.17 14.19 5.49 17.51C8.81 20.83 14.19 20.83 17.51 17.51C20.83 14.19 20.83 8.81 17.51 5.49C14.19 2.17 8.81 2.17 5.49 5.49Z" fill="#36B552"/>
</svg>
