<svg width="24" height="24" viewBox="0 0 24 24" fill="none" xmlns="http://www.w3.org/2000/svg">
<path d="M19 11.5C19 11.22 18.78 11 18.5 11H17.5C17.22 11 17 11.22 17 11.5V12.5C17 12.78 17.22 13 17.5 13H18.5C18.78 13 19 12.78 19 12.5V11.5ZM20 11.5V12.5C20 13.33 19.33 14 18.5 14H17.5C16.67 14 16 13.33 16 12.5V11.5C16 10.67 16.67 10 17.5 10H18.5C19.33 10 20 10.67 20 11.5ZM13 11.5C13 11.22 12.78 11 12.5 11H11.5C11.22 11 11 11.22 11 11.5V12.5C11 12.78 11.22 13 11.5 13H12.5C12.78 13 13 12.78 13 12.5V11.5ZM14 11.5V12.5C14 13.33 13.33 14 12.5 14H11.5C10.67 14 10 13.33 10 12.5V11.5C10 10.67 10.67 10 11.5 10H12.5C13.33 10 14 10.67 14 11.5ZM7 11.5C7 11.22 6.78 11 6.5 11H5.5C5.22 11 5 11.22 5 11.5V12.5C5 12.78 5.22 13 5.5 13H6.5C6.78 13 7 12.78 7 12.5V11.5ZM8 11.5V12.5C8 13.33 7.33 14 6.5 14H5.5C4.67 14 4 13.33 4 12.5V11.5C4 10.67 4.67 10 5.5 10H6.5C7.33 10 8 10.67 8 11.5Z" fill="#808080"/>
</svg>
