<svg width="24" height="24" viewBox="0 0 24 24" fill="none" xmlns="http://www.w3.org/2000/svg">
<path d="M3 5.5C3 4.12 4.12 3 5.5 3H8.5C9.88 3 11 4.12 11 5.5V8.5C11 9.88 9.88 11 8.5 11H5.5C4.12 11 3 9.88 3 8.5V5.5ZM4 5.5V8.5C4 9.33 4.67 10 5.5 10H8.5C9.33 10 10 9.33 10 8.5V5.5C10 4.67 9.33 4 8.5 4H5.5C4.67 4 4 4.67 4 5.5ZM13 5.5C13 4.12 14.12 3 15.5 3H18.5C19.88 3 21 4.12 21 5.5V8.5C21 9.88 19.88 11 18.5 11H15.5C14.12 11 13 9.88 13 8.5V5.5ZM14 5.5V8.5C14 9.33 14.67 10 15.5 10H18.5C19.33 10 20 9.33 20 8.5V5.5C20 4.67 19.33 4 18.5 4H15.5C14.67 4 14 4.67 14 5.5ZM3 15.5C3 14.12 4.12 13 5.5 13H8.5C9.88 13 11 14.12 11 15.5V18.5C11 19.88 9.88 21 8.5 21H5.5C4.12 21 3 19.88 3 18.5V15.5ZM4 15.5V18.5C4 19.33 4.67 20 5.5 20H8.5C9.33 20 10 19.33 10 18.5V15.5C10 14.67 9.33 14 8.5 14H5.5C4.67 14 4 14.67 4 15.5ZM13 15.5C13 14.12 14.12 13 15.5 13H18.5C19.88 13 21 14.12 21 15.5V18.5C21 19.88 19.88 21 18.5 21H15.5C14.12 21 13 19.88 13 18.5V15.5ZM14 15.5V18.5C14 19.33 14.67 20 15.5 20H18.5C19.33 20 20 19.33 20 18.5V15.5C20 14.67 19.33 14 18.5 14H15.5C14.67 14 14 14.67 14 15.5Z" fill="#212121"/>
</svg>
