<svg width="24" height="24" viewBox="0 0 24 24" fill="none" xmlns="http://www.w3.org/2000/svg">
<path d="M14.83 9.46H10.38C10.1 9.46 9.88 9.24 9.88 8.96C9.88 8.68 10.1 8.46 10.38 8.46H16.04C16.32 8.46 16.54 8.68 16.54 8.96V14.62C16.54 14.9 16.32 15.12 16.04 15.12C15.76 15.12 15.54 14.9 15.54 14.62V10.17L9.32 16.39C9.12 16.59 8.81 16.59 8.61 16.39C8.41 16.19 8.41 15.88 8.61 15.68L14.83 9.46ZM19.22 19.22C15.51 22.93 9.49 22.93 5.78 19.22C2.07 15.51 2.07 9.49 5.78 5.78C9.49 2.07 15.51 2.07 19.22 5.78C22.93 9.49 22.93 15.51 19.22 19.22ZM18.51 18.51C21.83 15.19 21.83 9.81 18.51 6.49C15.19 3.17 9.81 3.17 6.49 6.49C3.17 9.81 3.17 15.19 6.49 18.51C9.81 21.83 15.19 21.83 18.51 18.51Z" fill="#FF9C41"/>
</svg>
